<svg width="41" height="19" viewBox="0 0 41 19" fill="black" xmlns="http://www.w3.org/2000/svg">
    <path
        d="M8.25935 3.80532C8.72271 3.22575 9.03715 2.44756 8.95422 1.65234C8.27592 1.68607 7.44818 2.09984 6.96896 2.67987C6.53868 3.17657 6.15784 3.98734 6.25712 4.74922C7.01855 4.81527 7.77927 4.36863 8.25935 3.80532Z" />
    <path
        d="M8.94585 4.89894C7.84007 4.83308 6.89989 5.52652 6.37182 5.52652C5.84347 5.52652 5.03483 4.93214 4.16022 4.94816C3.02186 4.96488 1.96559 5.60851 1.38792 6.6322C0.199757 8.68007 1.07437 11.7178 2.2298 13.3857C2.7909 14.2108 3.46712 15.1194 4.35815 15.0867C5.20003 15.0537 5.53001 14.5416 6.55334 14.5416C7.57592 14.5416 7.87316 15.0867 8.76434 15.0702C9.68851 15.0537 10.2663 14.2447 10.8274 13.4187C11.4711 12.4781 11.7346 11.5698 11.7511 11.52C11.7346 11.5034 9.96908 10.8262 9.95271 8.7953C9.93604 7.09484 11.3388 6.28601 11.4048 6.23584C10.6127 5.06424 9.37495 4.93213 8.94585 4.89894Z" />
    <path
        d="M18.5745 2.59766C20.9779 2.59766 22.6515 4.25433 22.6515 6.66633C22.6515 9.08694 20.9435 10.7522 18.5143 10.7522H15.8532V14.984H13.9307V2.59766L18.5745 2.59766ZM15.8532 9.13843H18.0593C19.7332 9.13843 20.6858 8.23724 20.6858 6.67494C20.6858 5.1128 19.7332 4.22006 18.0679 4.22006H15.8532V9.13843Z" />
    <path
        d="M23.1533 12.4158C23.1533 10.8362 24.3636 9.86634 26.5097 9.74614L28.9816 9.60028V8.90506C28.9816 7.90072 28.3035 7.29987 27.1707 7.29987C26.0975 7.29987 25.4279 7.81479 25.265 8.62177H23.5139C23.6169 6.99076 25.0074 5.78906 27.2392 5.78906C29.428 5.78906 30.8271 6.94787 30.8271 8.75902V14.9822H29.0502V13.4973H29.0075C28.484 14.5016 27.3422 15.1367 26.1577 15.1367C24.3895 15.1367 23.1533 14.038 23.1533 12.4158ZM28.9816 11.6003V10.8879L26.7584 11.0252C25.6511 11.1025 25.0246 11.5917 25.0246 12.3643C25.0246 13.1539 25.6769 13.6689 26.6726 13.6689C27.9687 13.6689 28.9816 12.7762 28.9816 11.6003Z" />
    <path
        d="M32.5051 18.3052V16.803C32.6421 16.8372 32.9511 16.8372 33.1057 16.8372C33.964 16.8372 34.4276 16.4768 34.7107 15.5498C34.7107 15.5326 34.874 15.0004 34.874 14.9918L31.6123 5.95312H33.6206L35.9042 13.3009H35.9383L38.2218 5.95312H40.1788L36.7966 15.4552C36.0244 17.6442 35.1316 18.3481 33.2604 18.3481C33.1057 18.3481 32.6421 18.3308 32.5051 18.3052Z" />
</svg>