<svg width="16" height="16" viewBox="0 0 16 16" fill="black" xmlns="http://www.w3.org/2000/svg">
    <path
        d="M5.69997 8.00105L10.6 12.9011C10.7666 13.0677 10.8472 13.2622 10.8416 13.4844C10.8361 13.7066 10.75 13.9011 10.5833 14.0677C10.4166 14.2344 10.2222 14.3177 9.99997 14.3177C9.77774 14.3177 9.5833 14.2344 9.41663 14.0677L4.2833 8.95105C4.14997 8.81772 4.04997 8.66772 3.9833 8.50105C3.91663 8.33438 3.8833 8.16772 3.8833 8.00105C3.8833 7.83438 3.91663 7.66772 3.9833 7.50105C4.04997 7.33438 4.14997 7.18438 4.2833 7.05105L9.41663 1.91772C9.5833 1.75105 9.78052 1.67049 10.0083 1.67605C10.2361 1.68161 10.4333 1.76772 10.6 1.93438C10.7666 2.10105 10.85 2.29549 10.85 2.51772C10.85 2.73994 10.7666 2.93438 10.6 3.10105L5.69997 8.00105Z" />
</svg>