<svg width="20" height="20" fill="#FF3B30" viewBox="0 0 20 20" xmlns="http://www.w3.org/2000/svg">

    <path
        d="M10.0002 11.1654L5.91683 15.2487C5.76405 15.4015 5.56961 15.4779 5.3335 15.4779C5.09739 15.4779 4.90294 15.4015 4.75016 15.2487C4.59738 15.0959 4.521 14.9015 4.521 14.6654C4.521 14.4293 4.59738 14.2348 4.75016 14.082L8.8335 9.9987L4.75016 5.91536C4.59738 5.76259 4.521 5.56814 4.521 5.33203C4.521 5.09592 4.59738 4.90148 4.75016 4.7487C4.90294 4.59592 5.09739 4.51953 5.3335 4.51953C5.56961 4.51953 5.76405 4.59592 5.91683 4.7487L10.0002 8.83203L14.0835 4.7487C14.2363 4.59592 14.4307 4.51953 14.6668 4.51953C14.9029 4.51953 15.0974 4.59592 15.2502 4.7487C15.4029 4.90148 15.4793 5.09592 15.4793 5.33203C15.4793 5.56814 15.4029 5.76259 15.2502 5.91536L11.1668 9.9987L15.2502 14.082C15.4029 14.2348 15.4793 14.4293 15.4793 14.6654C15.4793 14.9015 15.4029 15.0959 15.2502 15.2487C15.0974 15.4015 14.9029 15.4779 14.6668 15.4779C14.4307 15.4779 14.2363 15.4015 14.0835 15.2487L10.0002 11.1654Z" />
</svg>