<svg width="16" height="16" viewBox="0 0 16 16" fill="black" xmlns="http://www.w3.org/2000/svg">
    <path
        d="M9.42857 15.1048C9.56825 15.1429 9.73016 15.1587 9.91429 15.1524C10.0984 15.146 10.254 15.1175 10.381 15.0667L16 12.9524C16 12.5206 15.8476 12.1587 15.5429 11.8667C15.2381 11.5746 14.8825 11.4286 14.4762 11.4286H9.25714C9.21905 11.4286 9.1746 11.4254 9.12381 11.419C9.07302 11.4127 9.03492 11.4032 9.00952 11.3905L7.88571 10.9905C7.78413 10.9524 7.71429 10.8889 7.67619 10.8C7.6381 10.7111 7.63175 10.6159 7.65714 10.5143C7.68254 10.4254 7.74603 10.3556 7.84762 10.3048C7.94921 10.254 8.05079 10.2476 8.15238 10.2857L9.00952 10.6095C9.06032 10.6349 9.10159 10.6508 9.13333 10.6571C9.16508 10.6635 9.2127 10.6667 9.27619 10.6667H11.2762C11.5175 10.6667 11.7302 10.5841 11.9143 10.419C12.0984 10.254 12.1905 10.0381 12.1905 9.77143C12.1905 9.59365 12.1365 9.42222 12.0286 9.25714C11.9206 9.09206 11.7778 8.97778 11.6 8.91429L6.32381 6.95238C6.23492 6.92698 6.14603 6.90476 6.05714 6.88571C5.96825 6.86667 5.87937 6.85714 5.79048 6.85714H4.57143V13.7333L9.42857 15.1048ZM0 13.7143C0 14.1333 0.149206 14.4921 0.447619 14.7905C0.746032 15.0889 1.10476 15.2381 1.52381 15.2381C1.94286 15.2381 2.30159 15.0889 2.6 14.7905C2.89841 14.4921 3.04762 14.1333 3.04762 13.7143V8.38095C3.04762 7.96191 2.89841 7.60318 2.6 7.30476C2.30159 7.00635 1.94286 6.85714 1.52381 6.85714C1.10476 6.85714 0.746032 7.00635 0.447619 7.30476C0.149206 7.60318 0 7.96191 0 8.38095V13.7143ZM11.4286 7.77143C11.2381 7.77143 11.0508 7.73651 10.8667 7.66667C10.6825 7.59683 10.5143 7.49206 10.3619 7.35238L8.26667 5.29524C7.87302 4.91429 7.53968 4.49206 7.26667 4.02857C6.99365 3.56508 6.85714 3.06032 6.85714 2.51429C6.85714 1.81587 7.10159 1.22222 7.59048 0.733333C8.07937 0.244444 8.67302 0 9.37143 0C9.77778 0 10.1587 0.0857143 10.5143 0.257143C10.8698 0.428571 11.1746 0.660317 11.4286 0.952381C11.6825 0.660317 11.9873 0.428571 12.3429 0.257143C12.6984 0.0857143 13.0794 0 13.4857 0C14.1841 0 14.7778 0.244444 15.2667 0.733333C15.7556 1.22222 16 1.81587 16 2.51429C16 3.06032 15.8667 3.56508 15.6 4.02857C15.3333 4.49206 15.0032 4.91429 14.6095 5.29524L12.4952 7.35238C12.3429 7.49206 12.1746 7.59683 11.9905 7.66667C11.8063 7.73651 11.619 7.77143 11.4286 7.77143Z" />
</svg>