<svg width="16" height="16" viewBox="0 0 16 16" fill="black" xmlns="http://www.w3.org/2000/svg">

    <path
        d="M7.96634 11.9987C8.19967 11.9987 8.3969 11.9181 8.55801 11.757C8.71912 11.5959 8.79967 11.3987 8.79967 11.1654C8.79967 10.932 8.71912 10.7348 8.55801 10.5737C8.3969 10.4126 8.19967 10.332 7.96634 10.332C7.73301 10.332 7.53579 10.4126 7.37467 10.5737C7.21356 10.7348 7.13301 10.932 7.13301 11.1654C7.13301 11.3987 7.21356 11.5959 7.37467 11.757C7.53579 11.9181 7.73301 11.9987 7.96634 11.9987ZM7.99967 14.6654C7.07745 14.6654 6.21079 14.4904 5.39967 14.1404C4.58856 13.7904 3.88301 13.3154 3.28301 12.7154C2.68301 12.1154 2.20801 11.4098 1.85801 10.5987C1.50801 9.78759 1.33301 8.92092 1.33301 7.9987C1.33301 7.07648 1.50801 6.20981 1.85801 5.3987C2.20801 4.58759 2.68301 3.88203 3.28301 3.28203C3.88301 2.68203 4.58856 2.20703 5.39967 1.85703C6.21079 1.50703 7.07745 1.33203 7.99967 1.33203C8.9219 1.33203 9.78856 1.50703 10.5997 1.85703C11.4108 2.20703 12.1163 2.68203 12.7163 3.28203C13.3163 3.88203 13.7913 4.58759 14.1413 5.3987C14.4913 6.20981 14.6663 7.07648 14.6663 7.9987C14.6663 8.92092 14.4913 9.78759 14.1413 10.5987C13.7913 11.4098 13.3163 12.1154 12.7163 12.7154C12.1163 13.3154 11.4108 13.7904 10.5997 14.1404C9.78856 14.4904 8.9219 14.6654 7.99967 14.6654ZM7.99967 13.332C9.48856 13.332 10.7497 12.8154 11.783 11.782C12.8163 10.7487 13.333 9.48759 13.333 7.9987C13.333 6.50981 12.8163 5.2487 11.783 4.21536C10.7497 3.18203 9.48856 2.66536 7.99967 2.66536C6.51079 2.66536 5.24967 3.18203 4.21634 4.21536C3.18301 5.2487 2.66634 6.50981 2.66634 7.9987C2.66634 9.48759 3.18301 10.7487 4.21634 11.782C5.24967 12.8154 6.51079 13.332 7.99967 13.332ZM8.06634 5.13203C8.34412 5.13203 8.58579 5.22092 8.79134 5.3987C8.9969 5.57648 9.09968 5.7987 9.09968 6.06536C9.09968 6.30981 9.02467 6.52648 8.87467 6.71536C8.72467 6.90425 8.55523 7.08203 8.36634 7.2487C8.11079 7.47092 7.88579 7.71536 7.69134 7.98203C7.4969 8.2487 7.39967 8.5487 7.39967 8.88203C7.39967 9.03759 7.45801 9.16814 7.57467 9.2737C7.69134 9.37925 7.82745 9.43203 7.98301 9.43203C8.14967 9.43203 8.29134 9.37648 8.40801 9.26537C8.52467 9.15425 8.59967 9.01537 8.63301 8.8487C8.67745 8.61537 8.77745 8.40703 8.93301 8.2237C9.08856 8.04037 9.25523 7.86537 9.43301 7.6987C9.68856 7.45425 9.90801 7.18759 10.0913 6.8987C10.2747 6.60981 10.3663 6.28759 10.3663 5.93203C10.3663 5.36536 10.1358 4.90148 9.67467 4.54036C9.21356 4.17925 8.67745 3.9987 8.06634 3.9987C7.64412 3.9987 7.24134 4.08759 6.85801 4.26536C6.47467 4.44314 6.18301 4.71536 5.98301 5.08203C5.90523 5.21536 5.88023 5.35703 5.90801 5.50703C5.93579 5.65703 6.01079 5.77092 6.13301 5.8487C6.28856 5.93759 6.44967 5.96536 6.61634 5.93203C6.78301 5.8987 6.9219 5.80425 7.03301 5.6487C7.15523 5.48203 7.30801 5.35425 7.49134 5.26536C7.67467 5.17648 7.86634 5.13203 8.06634 5.13203Z" />
</svg>