<svg width="24" height="24" viewBox="0 0 24 24" fill="black" xmlns="http://www.w3.org/2000/svg">

    <path
        d="M11.9998 13.3969L7.0998 18.2969C6.91647 18.4802 6.68314 18.5719 6.3998 18.5719C6.11647 18.5719 5.88314 18.4802 5.6998 18.2969C5.51647 18.1135 5.4248 17.8802 5.4248 17.5969C5.4248 17.3135 5.51647 17.0802 5.6998 16.8969L10.5998 11.9969L5.6998 7.09688C5.51647 6.91354 5.4248 6.68021 5.4248 6.39688C5.4248 6.11354 5.51647 5.88021 5.6998 5.69688C5.88314 5.51354 6.11647 5.42188 6.3998 5.42188C6.68314 5.42188 6.91647 5.51354 7.0998 5.69688L11.9998 10.5969L16.8998 5.69688C17.0831 5.51354 17.3165 5.42188 17.5998 5.42188C17.8831 5.42188 18.1165 5.51354 18.2998 5.69688C18.4831 5.88021 18.5748 6.11354 18.5748 6.39688C18.5748 6.68021 18.4831 6.91354 18.2998 7.09688L13.3998 11.9969L18.2998 16.8969C18.4831 17.0802 18.5748 17.3135 18.5748 17.5969C18.5748 17.8802 18.4831 18.1135 18.2998 18.2969C18.1165 18.4802 17.8831 18.5719 17.5998 18.5719C17.3165 18.5719 17.0831 18.4802 16.8998 18.2969L11.9998 13.3969Z" />
</svg>