<svg width="24" height="25" viewBox="0 0 24 25" fill="black" xmlns="http://www.w3.org/2000/svg">
    <path
        d="M12 12.5C10.9 12.5 9.95833 12.1083 9.175 11.325C8.39167 10.5417 8 9.6 8 8.5C8 7.4 8.39167 6.45833 9.175 5.675C9.95833 4.89167 10.9 4.5 12 4.5C13.1 4.5 14.0417 4.89167 14.825 5.675C15.6083 6.45833 16 7.4 16 8.5C16 9.6 15.6083 10.5417 14.825 11.325C14.0417 12.1083 13.1 12.5 12 12.5ZM4 18.5V17.7C4 17.1333 4.14583 16.6125 4.4375 16.1375C4.72917 15.6625 5.11667 15.3 5.6 15.05C6.63333 14.5333 7.68333 14.1458 8.75 13.8875C9.81667 13.6292 10.9 13.5 12 13.5C13.1 13.5 14.1833 13.6292 15.25 13.8875C16.3167 14.1458 17.3667 14.5333 18.4 15.05C18.8833 15.3 19.2708 15.6625 19.5625 16.1375C19.8542 16.6125 20 17.1333 20 17.7V18.5C20 19.05 19.8042 19.5208 19.4125 19.9125C19.0208 20.3042 18.55 20.5 18 20.5H6C5.45 20.5 4.97917 20.3042 4.5875 19.9125C4.19583 19.5208 4 19.05 4 18.5Z" />
</svg>