<svg width="50" height="50" viewBox="0 0 50 50" fill="none" xmlns="http://www.w3.org/2000/svg">
<rect width="50" height="50" rx="12" fill="black"/>
<path d="M29.14 34.0138C27.7366 34.0138 26.532 33.6587 25.5263 32.9485C24.5263 32.2326 23.7564 31.2014 23.2167 29.8548C22.6826 28.5025 22.4155 26.8746 22.4155 24.9712C22.4212 23.0678 22.6911 21.4485 23.2252 20.1133C23.765 18.7724 24.5348 17.7496 25.5348 17.0451C26.5405 16.3406 27.7422 15.9883 29.14 15.9883C30.5377 15.9883 31.7394 16.3406 32.7451 17.0451C33.7508 17.7496 34.5206 18.7724 35.0547 20.1133C35.5945 21.4542 35.8644 23.0735 35.8644 24.9712C35.8644 26.8803 35.5945 28.511 35.0547 29.8633C34.5206 31.2099 33.7508 32.2383 32.7451 32.9485C31.7451 33.6587 30.5434 34.0138 29.14 34.0138ZM29.14 31.3462C30.2309 31.3462 31.0917 30.8093 31.7223 29.7354C32.3587 28.6559 32.6769 27.0678 32.6769 24.9712C32.6769 23.5849 32.532 22.4201 32.2422 21.4769C31.9525 20.5337 31.5434 19.8235 31.015 19.3462C30.4866 18.8633 29.8616 18.6218 29.14 18.6218C28.0547 18.6218 27.1968 19.1616 26.5661 20.2411C25.9354 21.315 25.6172 22.8917 25.6116 24.9712C25.6059 26.3633 25.7451 27.5337 26.0292 28.4826C26.3189 29.4315 26.728 30.1474 27.2564 30.6303C27.7848 31.1076 28.4127 31.3462 29.14 31.3462Z" fill="white"/>
<path d="M8.23801 33.6815V31.3974L14.2977 25.457C14.8772 24.8718 15.3602 24.3519 15.7465 23.8974C16.1329 23.4428 16.4227 23.0025 16.6159 22.5763C16.809 22.1502 16.9056 21.6957 16.9056 21.2127C16.9056 20.6616 16.7806 20.19 16.5306 19.7979C16.2806 19.4002 15.9369 19.0934 15.4994 18.8775C15.0619 18.6616 14.5647 18.5536 14.0079 18.5536C13.434 18.5536 12.9312 18.6729 12.4994 18.9116C12.0676 19.1445 11.7323 19.4769 11.4937 19.9087C11.2607 20.3406 11.1443 20.8548 11.1443 21.4513H8.13574C8.13574 20.3434 8.38858 19.3803 8.89426 18.5621C9.39995 17.744 10.096 17.1104 10.9823 16.6616C11.8744 16.2127 12.8971 15.9883 14.0505 15.9883C15.221 15.9883 16.2494 16.207 17.1357 16.6445C18.0221 17.082 18.7096 17.6815 19.1982 18.4428C19.6926 19.2042 19.9397 20.0735 19.9397 21.0508C19.9397 21.7042 19.8147 22.3462 19.5647 22.9769C19.3147 23.6076 18.8744 24.3065 18.2437 25.0735C17.6187 25.8406 16.7409 26.7695 15.6102 27.8604L12.6017 30.9201V31.0394H20.2039V33.6815H8.23801Z" fill="white"/>
<path d="M36.8597 30.7955V31.4955H37.5597H40.2358H40.9358V30.7955V26.9358H44.7955H45.4955V26.2358V23.5597V22.8597H44.7955H40.9358V19V18.3H40.2358H37.5597H36.8597V19V22.8597H33H32.3V23.5597V26.2358V26.9358H33H36.8597V30.7955Z" fill="white" stroke="black" stroke-width="1.4"/>
</svg>
