<svg width="50" height="50" viewBox="0 0 50 50" fill="none" xmlns="http://www.w3.org/2000/svg">
<rect width="50" height="50" rx="12" fill="black"/>
<mask id="mask0_3240_184135" style="mask-type:alpha" maskUnits="userSpaceOnUse" x="13" y="13" width="24" height="24">
<rect x="13" y="13" width="24" height="24" fill="#D9D9D9"/>
</mask>
<g mask="url(#mask0_3240_184135)">
<path d="M25 32.875C24.7167 32.875 24.4417 32.8125 24.175 32.6875C23.9083 32.5625 23.675 32.3833 23.475 32.15L15.825 23C15.675 22.8167 15.5625 22.6167 15.4875 22.4C15.4125 22.1833 15.375 21.9583 15.375 21.725C15.375 21.575 15.3875 21.4208 15.4125 21.2625C15.4375 21.1042 15.4917 20.9583 15.575 20.825L17.45 17.1C17.6333 16.7667 17.8792 16.5 18.1875 16.3C18.4958 16.1 18.8417 16 19.225 16H30.775C31.1583 16 31.5042 16.1 31.8125 16.3C32.1208 16.5 32.3667 16.7667 32.55 17.1L34.425 20.825C34.5083 20.9583 34.5625 21.1042 34.5875 21.2625C34.6125 21.4208 34.625 21.575 34.625 21.725C34.625 21.9583 34.5875 22.1833 34.5125 22.4C34.4375 22.6167 34.325 22.8167 34.175 23L26.525 32.15C26.325 32.3833 26.0917 32.5625 25.825 32.6875C25.5583 32.8125 25.2833 32.875 25 32.875ZM22.625 21H27.375L25.875 18H24.125L22.625 21ZM24 29.675V23H18.45L24 29.675ZM26 29.675L31.55 23H26V29.675ZM29.6 21H32.25L30.75 18H28.1L29.6 21ZM17.75 21H20.4L21.9 18H19.25L17.75 21Z" fill="white"/>
</g>
</svg>
