<svg width="50" height="50" viewBox="0 0 50 50" fill="none" xmlns="http://www.w3.org/2000/svg">
<rect width="50" height="50" rx="12" fill="black"/>
<mask id="mask0_3234_183968" style="mask-type:alpha" maskUnits="userSpaceOnUse" x="13" y="13" width="24" height="24">
<rect x="13" y="13" width="24" height="24" fill="#D9D9D9"/>
</mask>
<g mask="url(#mask0_3234_183968)">
<path d="M13.95 26.3C13.65 25.7 13.4167 25.0917 13.25 24.475C13.0833 23.8583 13 23.2333 13 22.6C13 20.7333 13.6333 19.1667 14.9 17.9C16.1667 16.6333 17.7333 16 19.6 16C20.65 16 21.65 16.2208 22.6 16.6625C23.55 17.1042 24.35 17.7167 25 18.5C25.65 17.7167 26.45 17.1042 27.4 16.6625C28.35 16.2208 29.35 16 30.4 16C32.2667 16 33.8333 16.6333 35.1 17.9C36.3667 19.1667 37 20.7333 37 22.6C37 23.2333 36.9167 23.8583 36.75 24.475C36.5833 25.0917 36.35 25.7 36.05 26.3C35.8667 25.9833 35.65 25.7 35.4 25.45C35.15 25.2 34.8583 25 34.525 24.85C34.675 24.4667 34.7917 24.0917 34.875 23.725C34.9583 23.3583 35 22.9833 35 22.6C35 21.3 34.5583 20.2083 33.675 19.325C32.7917 18.4417 31.7 18 30.4 18C29.05 18 28.0125 18.3708 27.2875 19.1125C26.5625 19.8542 25.8 20.6833 25 21.6C24.2 20.6667 23.4375 19.8333 22.7125 19.1C21.9875 18.3667 20.95 18 19.6 18C18.3 18 17.2083 18.4417 16.325 19.325C15.4417 20.2083 15 21.3 15 22.6C15 22.9833 15.0417 23.3583 15.125 23.725C15.2083 24.0917 15.325 24.4667 15.475 24.85C15.1417 25 14.85 25.2 14.6 25.45C14.35 25.7 14.1333 25.9833 13.95 26.3ZM13 34V33.425C13 32.6917 13.3708 32.1042 14.1125 31.6625C14.8542 31.2208 15.8167 31 17 31C17.2167 31 17.425 31.0042 17.625 31.0125C17.825 31.0208 18.0167 31.0417 18.2 31.075C17.9667 31.4083 17.7917 31.7667 17.675 32.15C17.5583 32.5333 17.5 32.9417 17.5 33.375V35H14C13.7167 35 13.4792 34.9042 13.2875 34.7125C13.0958 34.5208 13 34.2833 13 34ZM19 34V33.375C19 32.2917 19.5542 31.4167 20.6625 30.75C21.7708 30.0833 23.2167 29.75 25 29.75C26.8 29.75 28.25 30.0833 29.35 30.75C30.45 31.4167 31 32.2917 31 33.375V34C31 34.2833 30.9042 34.5208 30.7125 34.7125C30.5208 34.9042 30.2833 35 30 35H20C19.7167 35 19.4792 34.9042 19.2875 34.7125C19.0958 34.5208 19 34.2833 19 34ZM32.5 35V33.375C32.5 32.9417 32.4458 32.5333 32.3375 32.15C32.2292 31.7667 32.0667 31.4083 31.85 31.075C32.0333 31.0417 32.2208 31.0208 32.4125 31.0125C32.6042 31.0042 32.8 31 33 31C34.2 31 35.1667 31.2208 35.9 31.6625C36.6333 32.1042 37 32.6917 37 33.425V34C37 34.2833 36.9042 34.5208 36.7125 34.7125C36.5208 34.9042 36.2833 35 36 35H32.5ZM25 31.75C24.05 31.75 23.2 31.875 22.45 32.125C21.7 32.375 21.2583 32.6667 21.125 33H28.9C28.75 32.6667 28.3042 32.375 27.5625 32.125C26.8208 31.875 25.9667 31.75 25 31.75ZM17 30C16.45 30 15.9792 29.8042 15.5875 29.4125C15.1958 29.0208 15 28.55 15 28C15 27.4333 15.1958 26.9583 15.5875 26.575C15.9792 26.1917 16.45 26 17 26C17.5667 26 18.0417 26.1917 18.425 26.575C18.8083 26.9583 19 27.4333 19 28C19 28.55 18.8083 29.0208 18.425 29.4125C18.0417 29.8042 17.5667 30 17 30ZM33 30C32.45 30 31.9792 29.8042 31.5875 29.4125C31.1958 29.0208 31 28.55 31 28C31 27.4333 31.1958 26.9583 31.5875 26.575C31.9792 26.1917 32.45 26 33 26C33.5667 26 34.0417 26.1917 34.425 26.575C34.8083 26.9583 35 27.4333 35 28C35 28.55 34.8083 29.0208 34.425 29.4125C34.0417 29.8042 33.5667 30 33 30ZM25 29C24.1667 29 23.4583 28.7083 22.875 28.125C22.2917 27.5417 22 26.8333 22 26C22 25.15 22.2917 24.4375 22.875 23.8625C23.4583 23.2875 24.1667 23 25 23C25.85 23 26.5625 23.2875 27.1375 23.8625C27.7125 24.4375 28 25.15 28 26C28 26.8333 27.7125 27.5417 27.1375 28.125C26.5625 28.7083 25.85 29 25 29ZM25 25C24.7167 25 24.4792 25.0958 24.2875 25.2875C24.0958 25.4792 24 25.7167 24 26C24 26.2833 24.0958 26.5208 24.2875 26.7125C24.4792 26.9042 24.7167 27 25 27C25.2833 27 25.5208 26.9042 25.7125 26.7125C25.9042 26.5208 26 26.2833 26 26C26 25.7167 25.9042 25.4792 25.7125 25.2875C25.5208 25.0958 25.2833 25 25 25Z" fill="white"/>
</g>
</svg>
